<mxfile host="app.diagrams.net" modified="2023-09-11T01:47:51.280Z" agent="Mozilla/5.0 (Windows NT 10.0; Win64; x64) AppleWebKit/537.36 (KHTML, like Gecko) Chrome/116.0.0.0 Whale/3.22.205.18 Safari/537.36" etag="3TrE-kJJiYLCRWBrj8_D" version="21.7.4" type="github">
  <diagram name="페이지-1" id="5P5z9dx1Hhn6WpUcnyMs">
    <mxGraphModel dx="640" dy="343" grid="1" gridSize="10" guides="1" tooltips="1" connect="1" arrows="1" fold="1" page="1" pageScale="1" pageWidth="827" pageHeight="1169" math="0" shadow="0">
      <root>
        <mxCell id="0" />
        <mxCell id="1" parent="0" />
        <mxCell id="-NO0b62XWjgTIZsh7Ent-1" value="" style="rounded=0;whiteSpace=wrap;html=1;" vertex="1" parent="1">
          <mxGeometry x="410" y="40" width="320" height="180" as="geometry" />
        </mxCell>
        <mxCell id="-NO0b62XWjgTIZsh7Ent-2" value="" style="rounded=0;whiteSpace=wrap;html=1;" vertex="1" parent="1">
          <mxGeometry x="40" y="280" width="180" height="320" as="geometry" />
        </mxCell>
        <mxCell id="-NO0b62XWjgTIZsh7Ent-3" value="" style="rounded=0;whiteSpace=wrap;html=1;" vertex="1" parent="1">
          <mxGeometry x="320" y="280" width="180" height="320" as="geometry" />
        </mxCell>
        <mxCell id="-NO0b62XWjgTIZsh7Ent-4" value="" style="rounded=0;whiteSpace=wrap;html=1;" vertex="1" parent="1">
          <mxGeometry x="40" y="40" width="320" height="180" as="geometry" />
        </mxCell>
        <mxCell id="-NO0b62XWjgTIZsh7Ent-5" value="" style="rounded=0;whiteSpace=wrap;html=1;" vertex="1" parent="1">
          <mxGeometry x="50" y="290" width="160" height="140" as="geometry" />
        </mxCell>
        <mxCell id="-NO0b62XWjgTIZsh7Ent-6" value="" style="rounded=0;whiteSpace=wrap;html=1;" vertex="1" parent="1">
          <mxGeometry x="50" y="440" width="160" height="110" as="geometry" />
        </mxCell>
        <mxCell id="-NO0b62XWjgTIZsh7Ent-7" value="" style="rounded=0;whiteSpace=wrap;html=1;" vertex="1" parent="1">
          <mxGeometry x="50" y="560" width="30" height="30" as="geometry" />
        </mxCell>
        <mxCell id="-NO0b62XWjgTIZsh7Ent-8" value="" style="rounded=0;whiteSpace=wrap;html=1;" vertex="1" parent="1">
          <mxGeometry x="90" y="560" width="30" height="30" as="geometry" />
        </mxCell>
        <mxCell id="-NO0b62XWjgTIZsh7Ent-9" value="" style="rounded=0;whiteSpace=wrap;html=1;" vertex="1" parent="1">
          <mxGeometry x="130" y="560" width="30" height="30" as="geometry" />
        </mxCell>
        <mxCell id="-NO0b62XWjgTIZsh7Ent-10" value="" style="rounded=0;whiteSpace=wrap;html=1;" vertex="1" parent="1">
          <mxGeometry x="170" y="560" width="40" height="30" as="geometry" />
        </mxCell>
      </root>
    </mxGraphModel>
  </diagram>
</mxfile>
